<?xml version="1.0" standalone="no"?>
<!DOCTYPE svg PUBLIC "-//W3C//DTD SVG 20010904//EN"
 "http://www.w3.org/TR/2001/REC-SVG-20010904/DTD/svg10.dtd">
<svg version="1.0" xmlns="http://www.w3.org/2000/svg"
 width="3600.000000pt" height="3600.000000pt" viewBox="0 0 3600.000000 3600.000000"
 preserveAspectRatio="xMidYMid meet">
<metadata>
Created by potrace 1.14, written by Peter Selinger 2001-2017
</metadata>
<g transform="translate(0.000000,3600.000000) scale(0.100000,-0.100000)"
fill="#000000" stroke="none">
<path d="M24779 34775 c-183 -35 -344 -115 -475 -238 -132 -123 -213 -258
-266 -444 -32 -109 -32 -350 0 -465 42 -155 120 -293 230 -410 135 -143 45
-101 2177 -1005 1073 -454 1989 -838 2036 -854 260 -85 557 -42 793 115 392
261 523 774 305 1196 -80 155 -200 283 -346 368 -103 61 -3981 1699 -4078
1723 -106 26 -278 33 -376 14z"/>
<path d="M21247 26889 c-1792 -3307 -3256 -6013 -3255 -6014 6 -4 7098 62
7102 66 7 7 3119 10370 3115 10373 -6 5 -3672 1578 -3690 1583 -11 3 -793
-1431 -3272 -6008z"/>
<path d="M18960 32472 c-1697 -969 -2960 -2228 -3810 -3797 -581 -1072 -974
-2346 -1140 -3691 -16 -137 -33 -272 -38 -301 l-7 -51 -60 35 c-99 59 -352
188 -475 243 -1112 499 -2352 654 -3780 474 -380 -48 -770 -119 -1170 -214
-217 -51 -459 -115 -467 -123 -2 -3 26 -47 63 -99 1308 -1810 2741 -2968 4311
-3481 439 -144 844 -230 1338 -284 203 -22 965 -25 1170 -5 149 14 459 53 463
57 6 6 -153 274 -245 413 -755 1143 -1957 2016 -3600 2616 -176 64 -670 226
-689 226 -30 0 -12 18 24 24 91 14 374 18 481 7 1105 -116 2550 -986 4520
-2722 75 -66 93 -78 88 -59 -9 38 -55 375 -76 570 -163 1447 -69 2788 280
4005 379 1319 1101 2562 2074 3570 110 114 108 110 -35 -80 -934 -1236 -1528
-2549 -1759 -3885 -199 -1148 -141 -2326 174 -3535 49 -189 112 -405 119 -413
13 -13 375 317 646 588 1008 1008 1697 2114 2099 3365 213 665 337 1348 381
2110 13 222 13 780 0 1020 -43 785 -174 1603 -391 2445 -79 308 -167 605 -302
1028 -6 17 -15 32 -21 32 -6 0 -81 -40 -166 -88z"/>
<path d="M5706 21388 c-5 -14 -9 -75 -56 -713 -232 -3176 -234 -5785 -4 -7825
210 -1869 630 -3291 1232 -4175 426 -626 960 -1209 1499 -1638 555 -442 1195
-793 1848 -1013 77 -26 150 -56 163 -67 35 -32 129 -234 143 -305 38 -205 -58
-389 -282 -540 -74 -49 -77 -53 -112 -134 -88 -205 -122 -360 -114 -518 15
-304 189 -530 542 -704 867 -428 2710 -479 5610 -155 149 16 482 57 740 89
604 76 652 83 640 86 -5 1 -116 8 -245 14 -1567 73 -2990 193 -3915 331 -1391
206 -2006 473 -1851 804 28 60 98 140 176 200 52 40 60 52 98 142 86 210 122
368 122 544 0 482 -310 877 -953 1214 -195 102 -395 182 -536 216 -937 222
-1666 742 -2226 1589 -1270 1920 -1603 5531 -1011 10938 14 123 26 226 28 228
3 2 112 -5 244 -16 2403 -193 4913 -319 7209 -361 716 -13 2778 -7 3325 10
2715 85 4652 274 6210 607 202 43 665 155 709 172 12 4 59 59 106 122 l85 115
-453 3 c-248 2 -659 -2 -912 -8 -3012 -71 -5663 -60 -8405 35 -2874 100 -5683
295 -8370 580 -477 51 -1198 132 -1248 140 -22 4 -34 2 -36 -7z"/>
<path d="M18250 17693 c-278 -28 -513 -95 -741 -209 -561 -280 -892 -782 -916
-1390 -18 -438 107 -841 389 -1261 l48 -72 -122 -62 c-620 -311 -988 -771
-1078 -1344 -35 -218 -30 -517 10 -718 126 -620 575 -1102 1230 -1320 573
-191 1293 -173 1829 47 280 115 644 328 831 486 l45 39 366 -372 365 -371 513
358 513 359 -466 466 -465 466 45 60 c90 119 304 444 423 643 176 292 362 625
353 633 -4 4 -233 130 -510 282 -493 270 -503 275 -516 254 -7 -12 -50 -92
-96 -177 -140 -262 -278 -507 -393 -699 l-110 -183 -418 418 -418 418 87 36
c492 206 908 551 1080 895 109 218 159 486 149 790 -9 262 -49 423 -162 650
-148 300 -375 522 -699 685 -208 105 -408 163 -648 189 -89 10 -436 13 -518 4z
m366 -1088 c285 -54 454 -270 454 -580 0 -194 -61 -346 -189 -475 -120 -122
-319 -243 -551 -335 l-95 -38 -50 57 c-128 147 -243 336 -283 466 -63 205 -47
450 40 613 125 234 386 347 674 292z m-218 -3313 l602 -609 -87 -62 c-377
-268 -761 -357 -1129 -260 -284 74 -489 265 -555 516 -27 100 -29 268 -5 367
50 207 161 381 331 516 68 54 225 151 235 145 4 -2 277 -278 608 -613z"/>
<path d="M9400 14430 l0 -3160 695 0 695 0 0 949 0 949 678 5 c741 4 798 8
1096 68 807 164 1395 607 1671 1260 113 269 159 527 159 899 0 246 -9 346 -49
535 -199 932 -946 1540 -2019 1644 -71 7 -602 11 -1518 11 l-1408 0 0 -3160z
m2770 1886 c251 -50 425 -132 568 -269 161 -155 237 -344 249 -617 4 -101 1
-158 -11 -227 -61 -352 -300 -622 -646 -731 -182 -58 -243 -62 -924 -62 l-616
0 0 966 0 965 648 -4 c555 -3 659 -6 732 -21z"/>
<path d="M23370 14430 l0 -3160 685 0 685 0 2 2046 3 2046 875 -1331 c679
-1031 880 -1330 895 -1330 17 -1 202 273 905 1342 l885 1343 3 -2058 2 -2058
690 0 690 0 0 3160 0 3160 -754 0 -754 0 -815 -1312 c-449 -722 -822 -1321
-830 -1331 -12 -17 -94 112 -839 1310 l-825 1328 -752 3 -751 2 0 -3160z"/>
<path d="M25991 10714 c-182 -31 -390 -120 -531 -229 -262 -203 -432 -521
-459 -858 -29 -368 86 -706 323 -955 175 -182 404 -302 669 -348 113 -20 403
-14 510 10 226 52 400 145 571 308 l87 83 -164 164 -165 164 -24 -19 c-189
-148 -300 -211 -413 -235 -89 -19 -276 -17 -355 5 -328 89 -543 439 -500 813
20 181 88 322 214 449 115 116 236 172 406 189 192 19 400 -54 589 -209 l65
-52 139 160 c77 89 152 174 166 189 l26 29 -50 44 c-242 217 -521 316 -881
313 -77 -1 -177 -7 -223 -15z"/>
<path d="M14897 10032 c-158 -372 -383 -903 -501 -1179 l-214 -503 263 0 262
0 105 258 105 257 499 2 499 3 105 -260 105 -260 268 0 c251 0 268 1 263 18
-4 9 -228 539 -500 1177 l-493 1160 -239 2 -239 3 -288 -678z m682 -337 l147
-360 -304 -3 c-168 -1 -307 0 -309 2 -2 2 62 165 143 362 80 198 149 365 152
373 5 13 7 13 15 0 4 -8 75 -176 156 -374z"/>
<path d="M22745 9563 c-268 -632 -494 -1163 -502 -1180 l-13 -33 262 0 263 0
105 260 105 260 499 -3 500 -2 104 -257 105 -258 269 0 c212 0 269 3 265 13
-3 6 -227 532 -497 1167 -271 635 -494 1161 -497 1168 -4 9 -62 12 -242 12
l-238 0 -488 -1147z m880 133 c81 -197 145 -360 142 -362 -2 -2 -141 -3 -308
-2 l-305 3 138 335 c75 184 144 353 153 375 13 31 18 36 25 24 5 -9 75 -177
155 -373z"/>
<path d="M9550 9521 l0 -1171 260 0 260 0 0 350 0 350 233 0 c247 0 349 9 471
40 179 46 299 111 411 224 132 133 192 262 215 462 35 302 -82 590 -305 749
-81 58 -175 101 -295 133 l-95 26 -577 4 -578 3 0 -1170z m1015 699 c132 -19
239 -90 287 -189 17 -35 23 -69 26 -141 5 -125 -18 -192 -92 -265 -100 -99
-166 -115 -481 -115 l-235 0 0 360 0 360 213 0 c116 0 244 -5 282 -10z"/>
<path d="M11810 9520 l0 -1170 260 0 260 0 0 470 0 470 475 0 475 0 0 -470 0
-470 255 0 255 0 0 1170 0 1170 -255 0 -255 0 0 -465 0 -465 -475 0 -475 0 0
465 0 465 -260 0 -260 0 0 -1170z"/>
<path d="M17050 9521 l0 -1171 260 0 260 0 0 375 0 375 202 -2 202 -3 250
-372 250 -373 298 0 c164 0 298 2 298 5 0 2 -126 189 -281 415 -155 226 -279
413 -277 415 2 2 25 13 51 24 122 53 260 168 334 280 84 126 126 336 105 527
-38 349 -233 560 -602 651 -55 14 -159 17 -707 20 l-643 4 0 -1170z m1133 698
c145 -22 248 -95 283 -203 27 -79 23 -200 -8 -267 -47 -104 -144 -170 -273
-189 -38 -5 -193 -10 -342 -10 l-273 0 0 340 0 340 271 0 c148 0 303 -5 342
-11z"/>
<path d="M19500 9520 l0 -1170 255 0 255 0 0 756 0 756 323 -490 c177 -270
327 -491 332 -492 6 0 156 222 335 493 l325 493 3 -758 2 -758 255 0 255 0 0
1170 0 1170 -278 0 -277 0 -305 -490 c-167 -269 -307 -490 -310 -490 -4 0
-143 220 -311 490 l-304 490 -277 0 -278 0 0 -1170z"/>
<path d="M27360 10686 c0 -2 200 -320 445 -706 l445 -701 0 -465 0 -464 260 0
260 0 0 466 0 466 407 637 c224 350 426 666 450 704 l43 67 -293 0 -293 0
-280 -462 c-154 -255 -284 -462 -289 -461 -6 1 -133 209 -284 462 l-273 461
-299 0 c-165 0 -299 -2 -299 -4z"/>
</g>
</svg>
